# xmcd CD database file
#
# Track frame offsets:
#	150
#	20824
#	47631
#	76446
#	108806
#	130309
#	159169
#	184809
#	210628
#	234590
#
# Disc length: 3829 seconds
#
# Revision: 0
# Processed by: cddbd v1.5.2PL0 Copyright (c) Steve Scherf et al.
# Submitted via: CDex 1.79
#
DISCID=7d0ef30a
DTITLE=Bartmes - The Soul Jazz Dynamiters
DYEAR=2009
DGENRE=Jazz
TTITLE0=Echo Love
TTITLE1=Organic Groove
TTITLE2=Oriental Heart Attack
TTITLE3=Indian Weib
TTITLE4=For Home Use
TTITLE5=Who Wants Another One
TTITLE6=Red Bug
TTITLE7=The Ham
TTITLE8=Latino Slide
TTITLE9=Little Groover
EXTD=YEAR: 2009
EXTT0=
EXTT1=
EXTT2=
EXTT3=
EXTT4=
EXTT5=
EXTT6=
EXTT7=
EXTT8=
EXTT9=
PLAYORDER=
